# xmcd CD database file
#
# Track frame offsets:
#	150
#	40072
#	85695
#	112887
#	136540
#	172420
#	222260
#	275202
#
# Disc length: 4340 seconds
#
# Revision: 0
# Processed by: cddbd v1.4PL0 Copyright (c) Steve Scherf et al.
# Submitted via: CDex 1.50beta9
#
DISCID=6d10f208
DTITLE=Vienna Art Orchestra - Nine Immortal Non-Evergreens for Eric Dolphy
DYEAR=1997
DGENRE=Jazz
TTITLE0=Out There
TTITLE1=Hat and Beard
TTITLE2=245
TTITLE3=Miss Ann
TTITLE4=Gazzelloni
TTITLE5=Straight Up and Down
TTITLE6=Something Sweet -  Something Tender
TTITLE7=Jitterburg Waltz
EXTD=YEAR: 1997
EXTT0=
EXTT1=
EXTT2=
EXTT3=
EXTT4=
EXTT5=
EXTT6=
EXTT7=
PLAYORDER=
